<?xml version="1.0" standalone="no"?>
<svg xmlns="http://www.w3.org/2000/svg" viewBox="0 0 97.466 112.545" width="97.466" height="112.545"><polygon fill="none" stroke="#dadada" stroke-width="3" points="95.966,28.88625 95.966,83.65875 48.733,111.045 1.5,83.65875 1.5,28.88625 48.733,1.5"></polygon><path fill="#494747" fill-rule="nonzero" d="M1.62 19.54Q0.95 19.54 0.48 19.07Q0 18.59 0 17.92L0 17.92Q0 17.30 0.34 16.88L0.34 16.88L12.04 2.44L1.26 2.44Q0.76 2.44 0.41 2.09Q0.06 1.74 0.06 1.23L0.06 1.23Q0.06 0.73 0.41 0.36Q0.76 0 1.26 0L1.26 0L13.41 0Q14.20 0 14.66 0.50Q15.12 1.01 15.12 1.74L15.12 1.74Q15.12 2.02 14.99 2.32Q14.87 2.63 14.67 2.86L14.67 2.86L3.11 17.16L14.08 17.16Q14.59 17.16 14.94 17.51Q15.29 17.86 15.29 18.37L15.29 18.37Q15.29 18.87 14.94 19.21Q14.59 19.54 14.08 19.54L14.08 19.54L1.62 19.54Z" transform="translate(41.089, 22.501)"></path><g fill="#494747" color="#494747" transform="translate(31.478098039215684 50.045) scale(0.7843138)"><svg width="44.0" height="51.0" x="0.0" y="0.0" viewBox="0 0 44 51"><path fill="currentColor" fill-rule="evenodd" d="M21.998 0L0 12.571v25.143l4.19 2.395V15.002L21.999 4.827 39.81 15.002v20.28L21.998 45.459l-9.427-5.388V19.865l9.427-5.386 9.43 5.386v10.553l-9.43 5.387-1.045-.597V24.73l5.268-3.012-4.223-2.413-5.236 2.994v15.34l5.236 2.993 13.62-7.784V17.435l-13.62-7.781-13.617 7.78v25.068l13.617 7.784L44 37.714V12.571z"></path></svg></g></svg>